<?xml version="1.0" encoding="UTF-8" standalone="no"?>
<svg
   width="512"
   height="512"
   version="1.1"
   id="svg203"
   sodipodi:docname="about-logo.svg"
   inkscape:version="1.3.2 (091e20e, 2023-11-25, custom)"
   xmlns:inkscape="http://www.inkscape.org/namespaces/inkscape"
   xmlns:sodipodi="http://sodipodi.sourceforge.net/DTD/sodipodi-0.dtd"
   xmlns="http://www.w3.org/2000/svg"
   xmlns:svg="http://www.w3.org/2000/svg">
  <sodipodi:namedview
     id="namedview203"
     pagecolor="#505050"
     bordercolor="#ffffff"
     borderopacity="1"
     inkscape:showpageshadow="0"
     inkscape:pageopacity="0"
     inkscape:pagecheckerboard="1"
     inkscape:deskcolor="#505050"
     inkscape:zoom="1.5878906"
     inkscape:cx="207.19311"
     inkscape:cy="263.5572"
     inkscape:window-width="1920"
     inkscape:window-height="1009"
     inkscape:window-x="1912"
     inkscape:window-y="-8"
     inkscape:window-maximized="1"
     inkscape:current-layer="svg203" />
  <defs
     id="defs12">
    <radialGradient
       id="a"
       cx="-41114.54"
       cy="-37248.438"
       r="214.628"
       gradientTransform="translate(54257.311 49219.919) scale(1.314)"
       gradientUnits="userSpaceOnUse">
      <stop
         offset=".467"
         stop-color="#0df"
         stop-opacity=".2"
         id="stop1" />
      <stop
         offset=".606"
         stop-color="#06dffa"
         stop-opacity=".214"
         id="stop2" />
      <stop
         offset=".748"
         stop-color="#18e7ec"
         stop-opacity=".256"
         id="stop3" />
      <stop
         offset=".889"
         stop-color="#35f2d5"
         stop-opacity=".326"
         id="stop4" />
      <stop
         offset="1"
         stop-color="#54ffbd"
         stop-opacity=".4"
         id="stop5" />
    </radialGradient>
    <radialGradient
       id="b"
       cx="-12416.691"
       cy="-14775.525"
       r="23.73"
       gradientTransform="translate(157911.044 187788.707) scale(12.695)"
       gradientUnits="userSpaceOnUse">
      <stop
         offset=".434"
         stop-color="#7542e5"
         stop-opacity="0"
         id="stop6" />
      <stop
         offset=".561"
         stop-color="#7844e6"
         stop-opacity=".013"
         id="stop7" />
      <stop
         offset=".665"
         stop-color="#804be8"
         stop-opacity=".053"
         id="stop8" />
      <stop
         offset=".761"
         stop-color="#8d57ed"
         stop-opacity=".12"
         id="stop9" />
      <stop
         offset=".852"
         stop-color="#a068f3"
         stop-opacity=".214"
         id="stop10" />
      <stop
         offset=".939"
         stop-color="#b97efb"
         stop-opacity=".335"
         id="stop11" />
      <stop
         offset=".978"
         stop-color="#c689ff"
         stop-opacity=".4"
         id="stop12" />
    </radialGradient>
  </defs>
  <path
     d="m 504,282.293 v -0.072 -0.044 l -2.252,-75.208 v -0.031 -0.055 c 0,-0.019 -0.009,-0.051 -0.014,-0.077 -0.005,-0.026 -0.012,-0.067 -0.021,-0.1 v -0.023 l -11.308,-37.529 v -0.008 a 0.244,0.244 0 0 0 -0.01,-0.024 1.1,1.1 0 0 0 -0.023,-0.061 0.808,0.808 0 0 0 -0.035,-0.08 c 0,-0.011 -0.008,-0.023 -0.013,-0.034 L 457.957,107.89 c -0.006,-0.011 -0.014,-0.019 -0.02,-0.03 a 1.17,1.17 0 0 0 -0.076,-0.116 l -0.023,-0.033 -0.035,-0.037 c -0.012,-0.013 -0.013,-0.019 -0.022,-0.028 l -37,-39.009 -0.018,-0.016 -0.025,-0.025 c -0.022,-0.02 -0.046,-0.038 -0.07,-0.056 -0.024,-0.018 -0.03,-0.03 -0.048,-0.043 h -0.006 l -0.008,-0.006 -39.274,-28.045 -0.019,-0.01 -0.038,-0.026 c -0.026,-0.016 -0.054,-0.028 -0.081,-0.043 -0.027,-0.015 -0.056,-0.03 -0.084,-0.042 l -0.019,-0.009 -34.086,-13.38 -0.021,-0.008 h -0.016 l -0.017,-0.008 h -0.007 L 306.02,12.353 c -0.013,0 -0.026,0 -0.039,-0.009 -0.013,-0.009 -0.052,-0.016 -0.079,-0.022 l -0.072,-0.016 c -0.025,0 -0.05,-0.006 -0.075,-0.009 -0.025,-0.003 -0.025,-0.005 -0.039,-0.006 L 238.329,8 H 238.3 a 0.786,0.786 0 0 0 -0.083,0.005 1.034,1.034 0 0 0 -0.111,0.007 h -0.043 l -42.492,7.67 -0.025,0.008 c -0.013,0 -0.026,0 -0.038,0.006 l -0.028,0.009 c -0.026,0.007 -0.051,0.012 -0.076,0.021 l -34.638,10.652 h -0.012 c -0.025,0.008 -0.05,0.02 -0.076,0.031 -0.026,0.011 -0.06,0.024 -0.089,0.039 -0.029,0.015 -0.03,0.013 -0.044,0.021 L 160.53,26.476 99.008,62.492 99,62.5 98.949,62.536 a 0.476,0.476 0 0 0 -0.047,0.031 c -0.015,0.011 -0.028,0.024 -0.042,0.036 -0.014,0.012 -0.025,0.018 -0.037,0.029 -0.012,0.011 -0.029,0.031 -0.044,0.047 -0.015,0.016 -0.023,0.019 -0.033,0.03 l -0.015,0.017 -38.441,42.883 c -0.006,0.007 -0.009,0.015 -0.015,0.021 l -0.027,0.032 -0.026,0.035 a 0.539,0.539 0 0 0 -0.033,0.05 0.184,0.184 0 0 0 -0.017,0.022 l -0.013,0.021 -35.441,57.569 a 0.336,0.336 0 0 0 -0.016,0.033 0.718,0.718 0 0 0 -0.063,0.13 c -0.009,0.023 -0.021,0.053 -0.03,0.08 0,0.012 -0.01,0.022 -0.013,0.035 l -13.947,49.01 v 0.02 c 0,0.012 -0.007,0.023 -0.01,0.036 v 0.028 c -0.005,0.025 -0.006,0.051 -0.01,0.077 -0.004,0.026 -0.008,0.055 -0.01,0.082 v 0.021 L 8,287.271 v 0.116 c 0,0.023 0.005,0.046 0.008,0.069 a 0.912,0.912 0 0 0 0.017,0.091 c 0,0.015 0,0.029 0.007,0.044 l 0.008,0.031 13.287,50.668 0.006,0.02 a 0.243,0.243 0 0 0 0.013,0.038 0.9,0.9 0 0 0 0.042,0.106 c 0.008,0.018 0.012,0.036 0.021,0.053 v 0.015 l 29.32,57.705 0.006,0.009 c 0.005,0.01 0.013,0.018 0.018,0.028 a 0.937,0.937 0 0 0 0.059,0.095 c 0.006,0.008 0.009,0.018 0.016,0.027 l 20.671,27.861 0.005,0.006 0.006,0.008 0.009,0.01 0.026,0.033 c 0.018,0.023 0.04,0.042 0.061,0.064 0.021,0.022 0.028,0.035 0.045,0.05 l 28.6,26.227 c 0.022,0.02 0.047,0.035 0.071,0.054 0.024,0.019 0.036,0.033 0.057,0.047 l 35.721,24.166 a 0.179,0.179 0 0 0 0.024,0.012 h 0.009 c 0.028,0.017 0.055,0.035 0.085,0.05 l 0.045,0.023 0.017,0.009 44.047,19.161 c 0.015,0.006 0.03,0.008 0.044,0.014 a 0.976,0.976 0 0 0 0.1,0.033 l 0.051,0.014 c 0.026,0.006 0.052,0.01 0.078,0.014 0.026,0.004 0.029,0.008 0.045,0.01 l 73.715,8.654 h 0.099 L 292.964,504 h 0.041 a 1.1,1.1 0 0 0 0.216,-0.022 c 0.015,0 0.03,-0.01 0.045,-0.014 h 0.031 l 56.968,-16.047 c 0.011,0 0.021,-0.01 0.032,-0.013 0.011,-0.003 0.034,-0.008 0.051,-0.014 0.017,-0.006 0.029,-0.015 0.044,-0.021 l 0.031,-0.015 c 0.022,-0.01 0.045,-0.018 0.067,-0.03 h 0.009 l 0.023,-0.013 50.888,-27.934 0.015,-0.009 0.021,-0.012 c 0.029,-0.018 0.056,-0.039 0.083,-0.059 0.023,-0.017 0.048,-0.03 0.069,-0.048 l 32.759,-27.95 c 0.013,-0.011 0.022,-0.024 0.034,-0.035 0.012,-0.011 0.029,-0.025 0.043,-0.04 l 0.041,-0.044 0.013,-0.013 25.4,-30.3 v -0.006 l 0.01,-0.014 a 1.334,1.334 0 0 0 0.09,-0.132 c 0.009,-0.016 0.021,-0.031 0.03,-0.047 l 0.008,-0.014 35.913,-70.311 a 0.538,0.538 0 0 0 0.02,-0.051 0.9,0.9 0 0 0 0.038,-0.084 c 0,-0.013 0.006,-0.026 0.01,-0.039 a 0.936,0.936 0 0 0 0.024,-0.091 c 0,-0.02 0.012,-0.039 0.015,-0.059 l 7.927,-48.085 v -0.01 a 0.283,0.283 0 0 1 0,-0.029 c 0,-0.013 0,-0.027 0.006,-0.04 0.006,-0.013 0.021,-0.048 0.021,-0.062 z m -402.286,166.669 -7.409,-6.794 16.663,13.055 z m 108.117,28.243 -26.031,-12.174 61.623,5.543 z m 9.5,-221.692 -68.355,7.2 42.152,-70.826 z m -23.86,-63.785 83.512,41.834 -57.443,21.482 z m 24.486,65.954 7.943,63.018 -76.043,-55.844 z m 6.948,65.04 -82.6,26 5.558,-82.577 z m -4.571,-63.989 64.025,42.517 -56.1,20.354 z m 1.02,-1.992 57.446,-21.486 6.657,64.056 z m 88.264,-74 53.24,-25.142 -6,59.808 z m 45.414,36.086 -73.19,13.37 25.985,-48.012 z m -75.275,12.547 -47.68,-87.56 73.866,39.175 z m -2.671,-0.249 -84.059,-42.109 36.134,-45.9 z m -129.8,30.065 -10.715,-40.89 51.713,-28 z m -7.082,85.5 -40.852,-67.043 46.312,-14.07 z m 83.418,-21.237 -41.561,44.4 -38.054,-19.343 z m 61.536,-22.131 -14.823,53.389 -40.788,-33.211 z m -4.02,-67.109 61.785,48.741 -55.143,15.168 z m 1.24,-1.854 74,-13.517 -11.791,62.589 z m 76.666,-16.472 5.936,-59.142 34.185,46.431 z M 401.909,207.271 403.8,275 361.612,220.04 Z m -91.291,-26.515 1.421,-50.271 51.557,25.252 z m -2.227,-0.043 -73.591,-39.026 75.019,-11.656 z M 193.797,186.979 180,136.791 l 49.206,5.2 z m -1.8,1.865 -52.2,28.261 38.4,-78.46 z M 147.532,263.3 102.2,277.068 136.845,222.492 Z m -8.21,82.949 -56.6,-40.1 16.883,-25.076 z m 4.568,5.684 38.037,19.336 -46.789,25.842 z m 85.538,-27.286 40.849,33.265 -83.009,11.774 z m 59.95,-21 60.289,58.3 -75.275,-4.326 z m 1.6,-1.546 55.337,-15.221 4.971,73.54 z m 69.42,-79.985 42.54,55.424 -54.228,6.62 z m 43.748,-14.408 35.926,20.306 -34.044,47.081 z m 0.379,-2.34 22.248,-36.608 13.267,56.682 z m -1.636,-1.594 -34.214,-46.474 56.756,9.38 z m -89.955,-75.319 40.186,-36.384 11.536,61.713 z m -79.513,11.2 25.5,-45.246 49.115,33.654 z m -53.221,-5.078 28.9,-58.772 20.643,64.013 z m -43.023,82.832 -35.028,-58.478 74.244,-21.645 z m -37.069,58.8 -16.945,-68.141 52.337,12.392 z m -18.665,27.848 -15.536,-38.609 32.079,14.039 z m 60.4,46.7 -8.773,45.288 L 84.607,310.2 Z m 41.778,22.108 13.291,44.889 -60.5,-18.814 z m 87.883,-12.89 -13.176,58.337 -70.953,-46.405 z m 78.37,4.207 -34.112,30.895 -39.678,-35.136 z m -1.231,-75.831 52.52,53.074 -47.563,20.168 z m 1.072,-2.081 54.135,-6.608 -1.778,59.518 z m 91.56,-56.132 21.625,72.826 -56.19,-25.017 z m -12.251,-61.538 35.268,26.747 -22.053,29.715 z m -60.717,-13.616 32.739,-37.5 24.187,46.913 z M 366.83,153.292 355.372,92 l 44.159,23.836 z m -55.954,-25.979 -48.9,-33.5 88.886,-2.7 z m -79.27,11.025 -20.5,-63.57 45.847,18.587 z m -53.3,-4.96 -23.74,-32.186 52.3,-25.9 z m -1.65,1.513 -72.714,21.2 48.849,-53.555 z m -41.691,83.158 -51.822,-12.269 17.522,-44.992 z m -36.939,59.03 -32.808,-14.358 16.3,-52.035 z m -18.294,28.692 -28.219,10.32 12.581,-49.183 z m 50.757,90.229 -62.08,-38.475 13.147,-48.2 z m 63.211,23.083 -58.726,9.317 -0.254,-27.654 z m -7.473,-45.27 69.041,45.155 -55.859,-0.635 z m 87.394,-13.083 40.085,35.5 -53.082,22.045 z m 78.486,4.436 21.184,58.717 L 317.729,396.3 Z M 354,363.839 401.289,343.792 375.233,422.7 Z m 52.074,-83.745 56.181,25.013 -57.965,34.7 z m 37.619,-49.659 36.734,26.148 -15.678,44.761 z m -0.417,-3.027 22.078,-29.75 14.55,55.823 z m -14.734,-61.965 10.252,-31.79 24.417,58.082 z M 427,162.961 403.641,117.653 437.273,131.1 Z m -69.224,-72.193 48.915,-3.2 -6.159,26.273 z m -96.85,0.851 34.439,-42.714 55.193,39.995 z M 258.892,90.6 241.16,44.149 l 51.816,4.174 z m -2.3,0.216 -45.3,-18.365 27.768,-27.554 z M 154.825,98.585 174.3,42.4 207.362,72.57 Z m -52.256,55.715 14.264,-58.381 33.85,5.632 z M 81.4,204.117 63.111,175.41 98.455,160.328 Z m -0.977,2.61 -15.632,49.908 -2.1,-77.742 z m -18,57.725 L 49.675,314.289 29.659,264.5 Z m -33.272,-2.174 1.069,-48.928 31.6,48.881 z m 50.4,45.925 -12.67,46.453 L 51.4,318.5 Z m 50.849,90.356 -38.475,5.45 -21.993,-42.926 z m 2.089,1.949 0.251,27.257 -38.09,-21.9 z m 64.168,20.356 -19.476,40.773 -40.581,-31.246 z m 2.271,0.412 51.463,47.515 -71.1,-6.4 z m 2.524,-0.7 56.371,0.64 -5.143,46.658 z m 113.274,-22.366 2.15,52.711 -55.26,-30.655 z m 2.237,0.193 55.757,27.677 -53.606,25.059 z m 86.472,-54.021 27.678,43.287 -53.767,35.731 z m 1.927,-1.118 53.292,7.832 -25.946,34.935 z m 0.993,-2.1 57,-34.128 L 459.65,349 Z m 75.287,-81.326 10.065,35.217 -25.258,8.16 z m -13.393,-59.887 28.869,36.361 -14.832,17.5 z m -27.015,-66.23 37.494,27.463 -12.893,31.056 z m -38.647,-18.882 6.043,-25.778 27,38.987 z m -47.8,-26.1 -6.511,-39.389 56.395,36.129 z m -2.475,-1.316 -53.751,-38.948 47.264,-0.294 z M 242.975,42.066 278.063,20.53 293.118,46.106 Z m -33.693,29.244 -32.488,-29.647 60.1,2.251 z M 152.137,99.536 118.4,93.923 171.277,44.337 Z M 99.788,156.295 65.267,128.266 114.256,97.075 Z m -1.467,1.673 -35.669,15.221 1.74,-42.769 z M 62.637,259.4 30.59,209.822 60.429,177.659 Z m -13.883,58.567 -6.082,30.333 -12,-75.311 z m 1.544,3.625 15.019,35.064 -21.447,-3.007 z m 38.966,82.108 -22.641,-4.355 1.441,-37.022 z m 42.77,26.225 -16.085,15.466 -21.6,-37.13 z m 1.919,1.24 38.622,29.735 -54.675,-14.3 z m 126.036,-9.257 55.14,30.588 -60.3,16.2 z m 114.031,6.019 -3.02,38.464 -49.737,-13.8 z m 55.326,-36.412 -30.617,53.621 -21.622,-18.9 z m 30.216,-37.907 0.171,28.079 -24.5,4.678 z m 6.141,-47.814 24.907,-8.048 -28.416,47.761 z m 17.28,-49.364 14.141,-16.682 -4.613,50.013 z m -15.862,-61.48 12.695,-30.58 16.451,67.291 z m -27.01,-64.808 8.919,-15.577 26.883,41.8 z m -1.549,-1.774 -26.384,-38.093 35.305,22.513 z m -88.53,-80.534 26.711,-2.842 27.02,37.265 z M 295.8,46.27 l -14.713,-25 60.142,24.714 z M 239.892,41.352 228.041,20.6 274.448,20.138 Z M 237.536,41.715 179.084,39.526 225.649,20.9 Z M 119.4,89.932 140.33,44.607 170.684,41.84 Z m -3.761,2.833 -19.133,-18.38 40.38,-27.629 z M 114.205,94.472 66.633,124.761 95,76.022 Z m -53.777,78.61 -23.875,-12.837 25.576,-29 z m -0.753,2.119 -29,31.256 5.035,-44.14 z m -32.764,87.655 -12.261,10.033 13.2,-53.2 z m 0.307,2.622 L 39.732,344 14.087,276.223 Z m 38.747,93.512 -1.436,36.9 -20.037,-39.91 z M 90.586,406.215 110.94,441.2 69.05,402.072 Z m 85.856,57.985 -0.885,20.269 -53.418,-34.468 z m 2.192,0.866 27.721,12.962 -28.592,7 z m 73.839,6.45 0.861,28.429 -40.29,-21.083 z m 63.68,-17 L 299.811,493 256.594,470.52 Z m 2.561,-0.334 49.7,13.792 L 302.4,492.6 Z m 57.5,-25.78 21.056,18.409 -23.957,18.589 z m 57.137,-39.422 24.274,-4.636 -53.2,55.294 z m 28.585,-10.729 -0.166,-27.368 22.396,-13.683 z m 1.969,-31.278 27.18,-45.683 -5,32.129 z m 34.661,-98.654 3.169,33.588 -7.182,9.924 z m -16.507,-84.146 6.215,5.827 6.212,44.993 z m -31.479,-51.313 5.845,-2.933 16.9,38.293 z m -40.886,-26.806 10.258,-14.688 25.11,37.241 z M 408.1,84.448 381.359,47.566 418.374,69.741 Z M 347.871,45.83 347.706,29.8 l 25.76,13.31 z m -2.233,-0.432 -58.876,-24.193 58.708,7.73 z m -116.464,-27.029 9.375,-8.044 31.082,7.641 z m -51.19,19.2 18.227,-19.636 25.2,2.266 z m -4.708,1.8 -27.6,2.517 45.318,-21.6 z M 97.374,71.1 l 3.053,-6.83 25.33,-12.59 z M 64.126,124.644 62.284,106.777 89.836,80.469 Z m -1.915,3.144 -22.847,25.905 21.05,-43.34 z m -34.038,80.97 -14.585,2.714 19.265,-43.749 z m -0.484,2.351 -13.953,56.22 L 12.85,213.87 Z M 40.026,351.07 23.444,337.422 15.5,286.255 Z M 63.277,398.36 52.686,394.873 45.6,363.149 Z m 45.268,43.652 -35.189,-19.158 -5.648,-18.991 z m 6.418,6.026 15.237,19.426 -46.573,-36.487 z m 5.7,3.661 48.444,31.258 -31.7,-9.911 z m 88.875,27.842 37.649,19.7 -65.449,-12.9 z m 45.18,-7.489 42.145,21.922 -41.283,6.547 z m 111.868,-1.022 -17.11,14.763 -38.5,5.978 z m 31.623,-22.13 1.425,9.21 -22.117,6.841 z M 455.6,389.669 432.851,430.083 403.9,443.4 Z m 6.342,-6.736 15.23,-28.133 -16.282,38.6 z m 32.195,-86.717 5.751,-7.946 -9.245,30.4 z m 5.534,-59.966 v -0.052 -0.014 l -0.081,-0.59 0.572,-7.532 0.584,19.5 z m -1.529,-11.091 -5.756,-41.687 7.127,23.652 z m -17.123,-65.009 -10.5,-23.8 14.7,27.736 z m -31.667,-49.161 -20.975,-31.108 26.757,28.207 z m -70.067,-67.257 1.4,-1.013 16.124,11.513 z m -2.116,-1.215 -10.9,-5.633 12.117,4.756 z m -92.035,-23.768 20.431,-4.2 30.744,10.938 z m -6.665,-0.9 -27.82,-6.839 46.651,2.971 z m -52.7,0.51 -21.7,-1.95 30.362,-5.481 z M 149.192,37.75 161.608,28.444 181.623,22.29 Z M 139,42.61 l -10.768,5.352 16.556,-9.69 z m -45.18,30.979 -12.774,12.2 14.607,-16.3 z m -59.836,86.085 -5.679,2.1 22.067,-35.845 z m -7.4,5.111 6.13,-2.271 -15.5,35.2 z m -15.262,91.331 0.324,19.59 -1.136,3.562 z m 1.065,24.6 5.59,36.009 -7.7,-29.38 z M 41.543,355.2 48.72,387.338 25.813,342.253 Z m 23.028,45.926 4.983,16.754 -14.836,-20 z m 111.288,86.274 2.079,3.315 -21.776,-9.473 z m 5.591,4.726 -2.556,-4.075 47.37,9.336 z m 116.034,4 -4.98,5.638 -26,-0.724 z m 3.452,-0.547 31,-4.813 -35.6,10.029 z m 71.622,-26.764 18.179,-5.623 -32.055,17.6 z m 29.119,-12.064 -1.427,-9.226 26.562,-12.219 z m 57.536,-68.969 -1.243,12.4 -17.47,20.844 z m 28.762,-52.863 4.489,-2.163 -20.546,40.224 z m 5.978,-5.348 -5.039,2.429 10.129,-33.309 z"
     fill="#000000"
     id="path202"
   />
</svg>
